<svg xmlns="http://www.w3.org/2000/svg" viewBox="0 0 38 35" fill="none">
  <path d="M1.02711 12.6324C2.74395 12.7648 4.17083 13.4436 4.98398 14.6739C5.30598 15.1611 5.50996 15.7029 5.60542 16.281C5.74931 15.715 5.99837 15.1941 6.35905 14.7371C7.27265 13.5796 8.75122 13.0232 10.4731 13.0354C10.8849 14.7071 10.6872 16.2746 9.7737 17.4321C8.97297 18.4465 7.73816 18.9988 6.28606 19.1117L5.47718 19.1052L5.4762 19.1075L4.68936 19.0391C3.25173 18.8047 2.06759 18.1503 1.35489 17.072C0.541896 15.842 0.476317 14.2636 1.02711 12.6324Z" fill="#292C33"/>
  <path d="M10.4411 5.14604C11.135 3.96974 11.1208 2.50661 10.5342 1.02375C8.9523 1.2274 7.66463 1.92256 6.97061 3.099C6.35497 4.14259 6.29722 5.4117 6.70157 6.72027L6.88084 7.19303L7.44957 7.12321C8.76834 6.83842 9.83277 6.17716 10.4411 5.14604Z" fill="#292C33"/>
  <path d="M2.41646 4.78198C4.03549 5.36833 5.22911 6.4037 5.68397 7.80647C5.86408 8.362 5.91585 8.93869 5.85338 9.52124C6.14327 9.01429 6.52245 8.5789 6.99214 8.23487C8.18181 7.36354 9.7553 7.22243 11.4113 7.69431C11.3615 9.41527 10.7521 10.873 9.56253 11.7442C8.51985 12.5078 7.18235 12.7101 5.7529 12.4308L4.97516 12.2085L4.9736 12.2104L4.23364 11.9343C2.91092 11.3243 1.9447 10.3772 1.54603 9.14775C1.09128 7.74516 1.44983 6.20666 2.41646 4.78198Z" fill="#292C33"/>
  <path d="M1.99161 21.1846C3.63223 20.6617 5.20963 20.7541 6.4257 21.5883C6.90728 21.9186 7.30006 22.344 7.60588 22.8438C7.52639 22.2652 7.56129 21.6889 7.72365 21.1298C8.13492 19.7137 9.29573 18.6421 10.8958 18.006C11.906 19.4001 12.3123 20.9269 11.9011 22.3429C11.5406 23.584 10.6041 24.5601 9.30099 25.2107L8.54904 25.5089L8.54899 25.5114L7.7942 25.7439C6.37395 26.0673 5.03063 25.9062 3.96478 25.1751C2.7489 24.341 2.09461 22.9031 1.99161 21.1846Z" fill="#292C33"/>
  <path d="M36.3586 12.6324C34.6418 12.7648 33.2149 13.4436 32.4018 14.6739C32.0798 15.1611 31.8758 15.7029 31.7803 16.281C31.6364 15.715 31.3874 15.1941 31.0267 14.7371C30.1131 13.5796 28.6345 13.0232 26.9127 13.0354C26.5008 14.7071 26.6986 16.2746 27.612 17.4321C28.4128 18.4465 29.6476 18.9988 31.0997 19.1117L31.9086 19.1052L31.9095 19.1075L32.6964 19.0391C34.134 18.8047 35.3182 18.1503 36.0309 17.072C36.8438 15.842 36.9094 14.2636 36.3586 12.6324Z" fill="#292C33"/>
  <path d="M26.9447 5.14604C26.2507 3.96974 26.2649 2.50661 26.8516 1.02375C28.4334 1.2274 29.7211 1.92256 30.4151 3.099C31.0308 4.14259 31.0885 5.4117 30.6842 6.72027L30.5049 7.19303L29.9362 7.12321C28.6174 6.83842 27.553 6.17716 26.9447 5.14604Z" fill="#292C33"/>
  <path d="M34.9693 4.78198C33.3503 5.36833 32.1566 6.4037 31.7018 7.80647C31.5217 8.362 31.4699 8.93869 31.5324 9.52124C31.2425 9.01429 30.8633 8.5789 30.3936 8.23487C29.2039 7.36354 27.6304 7.22243 25.9745 7.69431C26.0243 9.41527 26.6337 10.873 27.8232 11.7442C28.8659 12.5078 30.2034 12.7101 31.6328 12.4308L32.4106 12.2085L32.4121 12.2104L33.1521 11.9343C34.4748 11.3243 35.441 10.3772 35.8397 9.14775C36.2945 7.74516 35.9359 6.20666 34.9693 4.78198Z" fill="#292C33"/>
  <path d="M35.3941 21.1846C33.7535 20.6617 32.1761 20.7541 30.96 21.5883C30.4785 21.9186 30.0857 22.344 29.7799 22.8438C29.8594 22.2652 29.8245 21.6889 29.6621 21.1298C29.2508 19.7137 28.09 18.6421 26.4899 18.006C25.4797 19.4001 25.0735 20.9269 25.4847 22.3429C25.8452 23.584 26.7817 24.5601 28.0848 25.2107L28.8367 25.5089L28.8367 25.5114L29.5915 25.7439C31.0118 26.0673 32.3551 25.9062 33.421 25.1751C34.6368 24.341 35.2911 22.9031 35.3941 21.1846Z" fill="#292C33"/>
  <path d="M23.9586 20.9385C24.9474 22.3482 25.3299 23.881 24.8968 25.2906C24.7258 25.8471 24.439 26.348 24.0552 26.7881C24.585 26.5381 25.1468 26.3981 25.7306 26.3861C27.205 26.3559 28.5746 27.1438 29.6594 28.481C28.6304 29.8613 27.2943 30.7049 25.8202 30.7352C24.7896 30.7563 23.8108 30.3769 22.9443 29.69C22.6455 29.4531 22.2261 29.4117 21.911 29.6264C19.6236 31.1845 17.3082 32.6663 14.9361 34.1082C14.6813 34.2623 14.3496 34.1697 14.2098 33.9068C13.9733 33.4622 13.7367 33.0176 13.5002 32.573C13.3636 32.3161 13.4702 31.9973 13.7331 31.8728C16.1684 30.7106 18.599 29.4813 20.9791 28.1911C21.2217 28.0596 21.309 27.7548 21.1739 27.5142C21.0469 27.296 21.0023 27.1985 20.9052 26.9769C20.4423 25.92 20.4253 25.0345 20.739 24.0132C21.1721 22.6038 22.3491 21.5498 23.9586 20.9385Z" fill="#292C33"/>
  <path d="M13.427 20.9385C15.0365 21.5498 16.2139 22.6038 16.647 24.0132C16.9435 24.9786 16.8562 26.0012 16.4544 27.0028C16.2898 27.413 16.423 27.8988 16.8113 28.1099C19.2387 29.4298 21.7199 30.6864 24.2059 31.8728C24.4686 31.9972 24.5751 32.316 24.4386 32.5727C24.2021 33.0174 23.9656 33.4621 23.7292 33.9068C23.5893 34.1697 23.2577 34.2623 23.0029 34.1082C20.4366 32.5482 17.9363 30.942 15.4665 29.2424C15.2838 29.1167 15.0369 29.1411 14.8829 29.3007C14.7955 29.3943 14.6942 29.4815 14.5902 29.5694C13.6877 30.3326 12.6551 30.7575 11.5654 30.7352C10.0913 30.7048 8.75551 29.8613 7.72656 28.481C8.81134 27.1438 10.1811 26.3559 11.6554 26.3861C12.2392 26.3982 12.801 26.5381 13.3308 26.7881C12.9469 26.348 12.6598 25.8471 12.4888 25.2906C12.0557 23.881 12.4382 22.3482 13.427 20.9385Z" fill="#292C33"/>
</svg>
